<?xml version="1.0" standalone="no"?>
<!DOCTYPE svg PUBLIC "-//W3C//DTD SVG 20010904//EN"
 "http://www.w3.org/TR/2001/REC-SVG-20010904/DTD/svg10.dtd">
<svg version="1.0" xmlns="http://www.w3.org/2000/svg"
 width="512.000000pt" height="512.000000pt" viewBox="0 0 512.000000 512.000000"
 preserveAspectRatio="xMidYMid meet">

<g transform="translate(0.000000,512.000000) scale(0.100000,-0.100000)"
fill="#000000" stroke="none">
<path d="M1865 5109 c-137 -14 -294 -49 -435 -95 -882 -289 -1463 -1128 -1427
-2059 3 -82 13 -193 22 -245 149 -899 874 -1603 1785 -1731 107 -15 435 -16
518 -1 28 5 52 6 52 2 0 -4 -37 -72 -83 -151 -95 -165 -111 -201 -127 -288
-42 -234 135 -485 375 -531 43 -8 360 -10 1135 -8 l1075 3 56 23 c126 51 232
157 280 279 32 82 33 244 2 320 -12 29 -247 445 -524 924 l-502 871 31 132
c43 179 51 238 59 401 25 563 -210 1150 -627 1565 -445 443 -1042 654 -1665
589z m65 -365 c0 -117 53 -179 153 -177 91 1 138 56 145 169 l5 77 58 -7 c134
-14 320 -62 459 -118 41 -17 77 -32 79 -34 2 -2 -11 -29 -30 -61 -40 -71 -44
-137 -13 -181 32 -42 83 -72 123 -72 70 0 112 35 176 145 9 16 19 11 90 -45
130 -102 355 -343 355 -380 0 -4 -25 -22 -55 -39 -70 -40 -95 -79 -95 -149 0
-48 4 -57 39 -95 38 -41 41 -42 103 -42 54 0 70 5 113 32 l50 32 18 -35 c51
-98 122 -363 141 -521 l7 -53 -68 0 c-111 0 -170 -44 -180 -132 -4 -33 0 -55
16 -87 29 -55 82 -80 169 -81 l64 0 -6 -37 c-30 -208 -27 -195 -55 -189 -152
35 -246 27 -361 -30 -125 -63 -139 -82 -500 -707 -180 -313 -334 -575 -341
-582 -20 -18 -287 -75 -355 -75 -2 0 -4 28 -4 63 0 145 -106 227 -220 169 -58
-29 -80 -73 -80 -159 l0 -75 -52 7 c-160 20 -344 69 -485 127 l-72 29 31 52
c55 92 48 168 -19 227 -28 25 -42 30 -86 30 -69 0 -109 -25 -148 -95 -17 -30
-35 -55 -39 -55 -14 0 -111 77 -197 155 -45 41 -118 121 -163 176 l-82 102 61
38 c34 21 70 53 81 71 27 45 26 106 -2 148 -57 84 -132 97 -231 41 -32 -19
-59 -32 -61 -30 -11 12 -79 198 -100 274 -26 93 -56 251 -56 296 0 26 2 26 76
31 111 7 166 55 167 145 2 100 -60 153 -178 153 l-68 0 7 68 c9 83 40 232 67
315 38 114 82 217 93 217 6 0 34 -14 61 -30 90 -54 186 -33 227 50 41 80 10
158 -83 212 -32 18 -57 36 -56 40 1 4 30 42 65 86 109 139 370 374 380 344 10
-32 71 -109 101 -129 92 -62 221 12 221 126 0 33 -9 60 -30 96 -16 28 -30 55
-30 61 0 11 104 55 218 93 94 30 275 67 345 70 l37 1 0 -66z m1790 -2379 c14
-7 35 -24 47 -37 33 -35 1036 -1778 1046 -1818 21 -75 -26 -165 -100 -196 -26
-12 -221 -14 -1070 -14 -989 0 -1040 1 -1079 19 -74 34 -115 115 -95 189 12
45 1022 1797 1055 1830 48 49 132 60 196 27z"/>
<path d="M2815 3819 c-11 -6 -181 -172 -377 -367 l-358 -357 -182 181 c-101
100 -194 187 -206 194 -33 17 -104 15 -141 -4 -58 -30 -88 -103 -70 -170 9
-34 51 -81 257 -289 266 -266 293 -286 369 -272 33 6 89 58 466 433 236 235
435 439 443 454 33 63 6 149 -58 188 -36 22 -110 26 -143 9z"/>
<path d="M3605 1823 c-35 -9 -87 -55 -102 -90 -11 -28 -13 -78 -11 -238 3
-187 5 -206 24 -231 36 -49 68 -66 122 -66 62 0 103 23 131 72 19 35 21 53 21
242 0 196 -1 206 -22 238 -41 59 -105 88 -163 73z"/>
<path d="M3570 922 c-56 -30 -82 -90 -78 -184 3 -82 17 -112 71 -152 36 -26
112 -27 157 0 50 29 70 75 70 164 0 89 -19 134 -69 167 -42 28 -103 30 -151 5z"/>
</g>
</svg>
