<?xml version="1.0" encoding="UTF-8"?>
<svg id="Layer_1" data-name="Layer 1" xmlns="http://www.w3.org/2000/svg" xmlns:xlink="http://www.w3.org/1999/xlink" viewBox="0 0 2599.049695018240527 850.393700787404669">
  <defs>
    <clipPath id="clippath">
      <path d="M608.409978789009983,540.263991220335811c.09914799804028-.112508366559268,.16665301797002-.236267569780466,.264394661431652-.349479113630878,39.326596354378125-45.87388011099938,63.138288959889906-105.439325255269068,63.138288959889906-170.600655281408763,0-144.88124268538013-117.448890208441298-262.330132893819609-262.330132893821428-262.330132893819609S147.151693445401179,224.432614139916041,147.151693445401179,369.31385682529617c0,65.160626848848551,23.810989428218818,124.724665638539591,63.136179428020114,170.598545749529876,.098444820749137,.113914721148831,.166653017968201,.237673924359115,.266504193299625,.351588645509764l2.383067839240539,2.706529393099117c.959133824930177,1.084299382740937,1.892250090109883,2.190397261500038,2.86896334731864,3.258523566550139l67.63370138134087,76.817899979230788,92.709706756089872,105.299392974349757c17.683502514350039,20.084852963149388,48.981923737250327,20.084852963149388,66.664723074320136,0l92.710409933370101-105.299392974349757,67.625966431140114-76.809461851740707c.988667271160011-1.082189850869327,1.935143904858705-2.202351275449473,2.906231743749231-3.300714204009637l2.352831215719561-2.6727768831297Z" style="fill: none;"/>
    </clipPath>
    <clipPath id="clippath-1">
      <path d="M608.409978789020897,540.263991277604873c.099147998020271-.112508366570182,.16665301797002-.236267569789561,.264394661420738-.349479113639973,39.326596354378125-45.873880110988466,63.138288959889906-105.439325255269068,63.138288959889906-170.600655281399668,0-144.88124268538013-117.448890208441298-262.330132893830523-262.330132893810514-262.330132893830523-144.88124268538013,0-262.330836071119847,117.448890208450393-262.330836071119847,262.330132893830523,0,65.16062684885037,23.810989428229732,124.72466563854141,63.136179428020114,170.598545749529876,.098444820749137,.113914721141555,.166653017979115,.237673924360934,.266504193299625,.351588645509764l2.383067839240539,2.706529393100936c.959133824930177,1.084299382739118,1.892250090109883,2.190397261500038,2.86896334731864,3.258523566539225l67.63370138134087,76.817899979239883,92.709706756089872,105.299392974351576c17.683502514350039,20.084852963149388,48.981923737259422,20.084852963149388,66.664723074320136,0l92.710409933370101-105.299392974351576,67.625966431140114-76.809461851738888c.988667271169106-1.082189850871146,1.935143904869619-2.202351275451292,2.906231743749231-3.300714204009637l2.352831215730475-2.672776883131519Z" style="fill: none;"/>
    </clipPath>
  </defs>
  <g>
    <g>
      <path d="M875.760624671780533,547.021684814775654c18.1875,0,34.62890625-7.130859375,49.3271484375-21.388671875,15.2783203125-14.552734375,22.91796875-31.501953125,22.91796875-50.85546875-16.587890625,24.0087890625-40.671875,36.013671875-72.2451171875,36.013671875-34.6318359375,0-64.244140625-12.294921875-88.8330078125-36.88671875-24.591796875-24.587890625-36.8857421875-54.201171875-36.8857421875-88.83203125,0-34.62890625,12.2939453125-64.2412109375,36.8857421875-88.8330078125,24.5888671875-24.5888671875,54.201171875-36.8857421875,88.8330078125-36.8857421875,34.4853515625,0,64.0224609375,12.22265625,88.6142578125,36.66796875,24.5888671875,24.3017578125,36.9580078125,53.837890625,37.1044921875,88.61328125v90.142578125c0,34.048828125-13.1708984375,63.732421875-39.5048828125,89.05078125-25.4658203125,24.4453125-54.2041015625,36.66796875-86.2138671875,36.66796875-49.037109375,0-85.7763671875-19.064453125-110.2216796875-57.18359375-2.9130859375-4.513671875-4.365234375-9.16796875-4.365234375-13.96875,0-2.9140625,.5078125-5.822265625,1.52734375-8.73046875,2.619140625-8.15234375,8.0009765625-13.67578125,16.1513671875-16.587890625l.6552734375-.21875c3.634765625-1.310546875,7.126953125-1.96484375,10.4765625-1.96484375,8.146484375,0,14.984375,4.076171875,20.515625,12.22265625,14.40625,21.96875,36.1572265625,32.95703125,65.2607421875,32.95703125Zm72.2451171875-163.259765625c-.2939453125-19.642578125-7.49609375-36.3740234375-21.6083984375-50.19921875-13.96875-13.822265625-30.849609375-20.7353515625-50.63671875-20.7353515625-20.080078125,0-37.1796875,7.0595703125-51.2919921875,21.1708984375-13.96875,14.115234375-20.953125,31.140625-20.953125,51.07421875,0,20.080078125,6.984375,37.1796875,20.953125,51.291015625,14.1123046875,13.96875,31.2119140625,20.953125,51.2919921875,20.953125s37.1044921875-6.984375,51.0732421875-20.953125c14.1123046875-14.111328125,21.171875-31.2109375,21.171875-51.291015625v-1.310546875Z" style="fill: #fff;"/>
      <path d="M1250.742069984280533,296.239458252275654c24.5888671875,24.591796875,36.88671875,54.2041015625,36.88671875,88.8330078125v99.30859375c0,7.4208984375-2.619140625,13.607421875-7.857421875,18.552734375-5.23828125,5.23828125-11.4248046875,7.857421875-18.552734375,7.857421875h-.654296875c-7.130859375,0-13.314453125-2.619140625-18.552734375-7.857421875-5.23828125-4.9453125-7.857421875-11.1318359375-7.857421875-18.552734375-16.587890625,17.607421875-40.6708984375,26.41015625-72.244140625,26.41015625-34.6318359375,0-64.244140625-12.294921875-88.83203125-36.88671875-24.5927734375-24.587890625-36.88671875-54.201171875-36.88671875-88.83203125,0-34.62890625,12.2939453125-64.2412109375,36.88671875-88.8330078125,24.587890625-24.5888671875,54.2001953125-36.8857421875,88.83203125-36.8857421875,34.62890625,0,64.240234375,12.296875,88.83203125,36.8857421875Zm-140.123046875,37.7587890625c-13.96875,14.115234375-20.953125,31.140625-20.953125,51.07421875,0,20.080078125,6.984375,37.1796875,20.953125,51.291015625,14.111328125,13.96875,31.2109375,20.953125,51.291015625,20.953125s37.1044921875-6.984375,51.0732421875-20.953125c14.1123046875-14.111328125,21.1708984375-31.2109375,21.1708984375-51.291015625,0-19.93359375-7.05859375-36.958984375-21.1708984375-51.07421875-14.115234375-14.111328125-31.1396484375-21.1708984375-51.0732421875-21.1708984375-20.080078125,0-37.1796875,7.0595703125-51.291015625,21.1708984375Z" style="fill: #fff;"/>
      <path d="M1349.406132484280533,169.865434814775654c7.1279296875,0,13.314453125,2.5478515625,18.552734375,7.6396484375,5.23828125,5.23828125,7.857421875,11.49609375,7.857421875,18.7705078125v63.078125h32.73828125c7.1279296875,0,13.314453125,2.619140625,18.552734375,7.857421875s7.857421875,11.49609375,7.857421875,18.76953125v.4375c0,7.419921875-2.619140625,13.607421875-7.857421875,18.5517578125-5.23828125,5.23828125-11.4248046875,7.857421875-18.552734375,7.857421875h-32.73828125v129.4287109375c0,4.22265625,1.4521484375,7.7861328125,4.365234375,10.6953125,2.908203125,2.912109375,6.546875,4.365234375,10.912109375,4.365234375h17.4609375c7.1279296875,0,13.314453125,2.619140625,18.552734375,7.857421875s7.857421875,11.49609375,7.857421875,18.7705078125v.4365234375c0,7.4208984375-2.619140625,13.607421875-7.857421875,18.552734375-5.23828125,5.23828125-11.4248046875,7.857421875-18.552734375,7.857421875h-17.4609375c-18.9169921875,0-35.1396484375-6.69140625-48.671875-20.080078125-13.388671875-13.533203125-20.080078125-29.68359375-20.080078125-48.455078125V196.275591064775654c0-7.2744140625,2.619140625-13.5322265625,7.857421875-18.7705078125,5.23828125-5.091796875,11.4208984375-7.6396484375,18.552734375-7.6396484375h.654296875Z" style="fill: #fff;"/>
      <path d="M1483.645390296780533,169.865434814775654c7.1279296875,0,13.314453125,2.5478515625,18.552734375,7.6396484375,5.23828125,5.23828125,7.857421875,11.49609375,7.857421875,18.7705078125v75.955078125c11.4921875-8.583984375,28.8818359375-12.876953125,52.1640625-12.876953125,28.9541015625,0,53.763671875,10.3330078125,74.427734375,30.9921875,20.6591796875,20.6640625,30.9921875,45.544921875,30.9921875,74.646484375v119.388671875c0,7.4208984375-2.619140625,13.607421875-7.857421875,18.552734375-4.9482421875,5.23828125-11.130859375,7.857421875-18.5517578125,7.857421875h-.4365234375c-7.27734375,0-13.5322265625-2.619140625-18.7705078125-7.857421875-5.23828125-4.9453125-7.857421875-11.1318359375-7.857421875-18.552734375v-119.388671875c0-14.40625-5.0205078125-26.7001953125-15.0595703125-36.88671875-10.1875-10.18359375-22.4814453125-15.2783203125-36.88671875-15.2783203125-14.5517578125,0-26.9208984375,5.0947265625-37.1044921875,15.2783203125-10.0400390625,10.1865234375-15.0595703125,22.48046875-15.0595703125,36.88671875v119.388671875c0,7.4208984375-2.619140625,13.607421875-7.857421875,18.552734375-5.23828125,5.23828125-11.4248046875,7.857421875-18.552734375,7.857421875h-.654296875c-7.1318359375,0-13.314453125-2.619140625-18.552734375-7.857421875-5.23828125-4.9453125-7.857421875-11.1318359375-7.857421875-18.552734375V196.275591064775654c0-7.2744140625,2.619140625-13.5322265625,7.857421875-18.7705078125,5.23828125-5.091796875,11.4208984375-7.6396484375,18.552734375-7.6396484375h.654296875Z" style="fill: #fff;"/>
      <path d="M1935.674687171780533,332.689653564775654c1.74609375,3.638671875,2.619140625,7.3486328125,2.619140625,11.130859375,0,3.0556640625-.583984375,6.111328125-1.74609375,9.1669921875-2.4765625,6.8408203125-7.1318359375,11.7861328125-13.96875,14.841796875-20.3740234375,9.1669921875-47.14453125,21.2470703125-80.3203125,36.2314453125-41.1806640625,18.626953125-65.3359375,29.611328125-72.462890625,32.95703125,11.0556640625,13.96875,28.298828125,20.953125,51.7275390625,20.953125,15.568359375,0,29.68359375-4.5830078125,42.3427734375-13.75,12.3662109375-9.0205078125,21.0244140625-20.66015625,25.97265625-34.921875,4.21875-11.9296875,12.66015625-17.8974609375,25.318359375-17.8974609375,9.0205078125,0,16.2236328125,3.7861328125,21.6083984375,11.349609375,3.345703125,4.6591796875,5.0205078125,9.5322265625,5.0205078125,14.6240234375,0,3.0546875-.583984375,6.185546875-1.74609375,9.384765625-8.587890625,24.8818359375-23.6474609375,44.9619140625-45.1806640625,60.240234375-21.826171875,15.861328125-46.271484375,23.791015625-73.3359375,23.791015625-34.6318359375,0-64.244140625-12.294921875-88.8330078125-36.88671875-24.591796875-24.587890625-36.8857421875-54.201171875-36.8857421875-88.83203125,0-34.62890625,12.2939453125-64.2412109375,36.8857421875-88.8330078125,24.5888671875-24.5888671875,54.201171875-36.8857421875,88.8330078125-36.8857421875,25.025390625,0,47.87109375,6.8408203125,68.5341796875,20.515625,20.5166015625,13.3896484375,35.7197265625,30.994140625,45.6171875,52.8203125Zm-114.1513671875-19.42578125c-20.080078125,0-37.1796875,7.0595703125-51.2919921875,21.171875-13.96875,14.115234375-20.953125,31.2109375-20.953125,51.291015625v1.52734375l122.0087890625-54.783203125c-10.76953125-12.802734375-27.357421875-19.20703125-49.763671875-19.20703125Z" style="fill: #fff;"/>
      <path d="M2080.827030921780533,259.353716064775654c7.2744140625,0,13.5322265625,2.619140625,18.7705078125,7.857421875,5.091796875,5.23828125,7.638671875,11.49609375,7.638671875,18.76953125v.4375c0,7.27734375-2.546875,13.4599609375-7.638671875,18.5517578125-5.23828125,5.23828125-11.49609375,7.857421875-18.7705078125,7.857421875h-12.4404296875c-11.93359375,0-22.044921875,4.1474609375-30.3388671875,12.4404296875-8.150390625,8.294921875-12.2978515625,18.41015625-12.4404296875,30.3388671875v128.7744140625c0,7.4208984375-2.619140625,13.607421875-7.857421875,18.552734375-5.23828125,5.23828125-11.4248046875,7.857421875-18.552734375,7.857421875h-.654296875c-7.1318359375,0-13.314453125-2.619140625-18.552734375-7.857421875-5.23828125-4.9453125-7.857421875-11.1318359375-7.857421875-18.552734375v-128.7744140625c.2900390625-26.6279296875,9.6748046875-49.3271484375,28.15625-68.09765625,18.76953125-18.7705078125,41.46875-28.1552734375,68.09765625-28.1552734375h12.4404296875Z" style="fill: #fff;"/>
      <path d="M2158.101444984280533,169.865434814775654c7.1279296875,0,13.314453125,2.5478515625,18.552734375,7.6396484375,5.23828125,5.23828125,7.857421875,11.49609375,7.857421875,18.7705078125V484.381059814775654c0,7.4208984375-2.619140625,13.607421875-7.857421875,18.552734375-5.23828125,5.23828125-11.4248046875,7.857421875-18.552734375,7.857421875h-.654296875c-7.1318359375,0-13.314453125-2.619140625-18.552734375-7.857421875-5.23828125-4.9453125-7.857421875-11.1318359375-7.857421875-18.552734375V196.275591064775654c0-7.2744140625,2.619140625-13.5322265625,7.857421875-18.7705078125,5.23828125-5.091796875,11.4208984375-7.6396484375,18.552734375-7.6396484375h.654296875Z" style="fill: #fff;"/>
      <path d="M2281.428593421780533,400.568559814775654c0,14.4052734375,5.01953125,26.703125,15.0595703125,36.88671875,10.18359375,10.185546875,22.552734375,15.27734375,37.1044921875,15.27734375,14.2587890625,0,26.4814453125-5.091796875,36.66796875-15.27734375,10.18359375-10.18359375,15.2783203125-22.4814453125,15.2783203125-36.88671875v-114.587890625c0-7.2734375,2.619140625-13.53125,7.857421875-18.76953125s11.4931640625-7.857421875,18.7705078125-7.857421875h.4365234375c7.4208984375,0,13.603515625,2.619140625,18.5517578125,7.857421875,5.23828125,5.23828125,7.857421875,11.49609375,7.857421875,18.76953125v208.876953125c0,28.810546875-10.8408203125,53.693359375-32.5205078125,74.646484375-21.099609375,20.658203125-45.3984375,30.9921875-72.8994140625,30.9921875-21.826171875,0-41.6875-5.384765625-59.5859375-16.150390625-17.4609375-10.4765625-30.703125-24.521484375-39.72265625-42.125-2.0400390625-3.9296875-3.056640625-7.857421875-3.056640625-11.787109375,0-3.34765625,.7265625-6.693359375,2.18359375-10.0390625,2.908203125-7.568359375,8-12.583984375,15.27734375-15.060546875l.873046875-.435546875c3.19921875-1.017578125,6.330078125-1.529296875,9.3857421875-1.529296875,3.19921875,0,6.3291015625,.583984375,9.3857421875,1.74609375,5.9638671875,2.4765625,10.4765625,6.619140625,13.53125,12.44140625,4.6552734375,8.73046875,11.6396484375,15.787109375,20.953125,21.171875,9.45703125,5.52734375,19.7158203125,8.29296875,30.775390625,8.29296875,13.822265625,0,25.8984375-5.09375,36.2314453125-15.27734375,10.4765625-10.4765625,15.71484375-22.771484375,15.71484375-36.88671875v-1.74609375c-11.49609375,8.587890625-28.810546875,12.876953125-51.9462890625,12.876953125-29.103515625,0-53.9853515625-10.330078125-74.6455078125-30.9921875-20.6630859375-20.517578125-30.9931640625-45.32421875-30.9931640625-74.427734375v-114.587890625c0-7.2734375,2.619140625-13.53125,7.857421875-18.76953125s11.4208984375-7.857421875,18.552734375-7.857421875h.654296875c7.1279296875,0,13.314453125,2.619140625,18.552734375,7.857421875s7.857421875,11.49609375,7.857421875,18.76953125v114.587890625Z" style="fill: #fff;"/>
    </g>
    <g>
      <path d="M870.740116859280533,724.564653564775654l8.2998046875-18.798828125-20.5-47.80078125h8.7998046875l16.1005859375,39.400390625,16.19921875-39.400390625h8.5l-28.8994140625,66.599609375h-8.5Z" style="fill: #fff;"/>
      <path d="M934.039921546780533,707.465044189775654c-4.734375,0-8.833984375-1.033203125-12.2998046875-3.099609375-3.466796875-2.06640625-6.150390625-4.982421875-8.0498046875-8.75-1.900390625-3.765625-2.8505859375-8.2158203125-2.8505859375-13.349609375,0-5.1328125,.9501953125-9.583984375,2.8505859375-13.3505859375,1.8994140625-3.765625,4.5830078125-6.6826171875,8.0498046875-8.75,3.4658203125-2.0654296875,7.5654296875-3.1005859375,12.2998046875-3.1005859375,4.666015625,0,8.75,1.03515625,12.25,3.1005859375,3.5,2.0673828125,6.2001953125,4.984375,8.1005859375,8.75,1.8994140625,3.7666015625,2.849609375,8.2177734375,2.849609375,13.3505859375,0,5.1337890625-.9501953125,9.583984375-2.849609375,13.349609375-1.900390625,3.767578125-4.6005859375,6.68359375-8.1005859375,8.75s-7.583984375,3.099609375-12.25,3.099609375Zm0-6.5c4.533203125,0,8.166015625-1.615234375,10.900390625-4.849609375,2.732421875-3.232421875,4.099609375-7.849609375,4.099609375-13.849609375,0-6.06640625-1.3671875-10.701171875-4.099609375-13.900390625-2.734375-3.2001953125-6.3671875-4.80078125-10.900390625-4.80078125-4.599609375,0-8.25,1.6005859375-10.9501953125,4.80078125-2.69921875,3.19921875-4.0498046875,7.833984375-4.0498046875,13.900390625,0,6,1.3505859375,10.6171875,4.0498046875,13.849609375,2.7001953125,3.234375,6.3505859375,4.849609375,10.9501953125,4.849609375Z" style="fill: #fff;"/>
      <path d="M984.639530921780533,707.465044189775654c-11.6669921875,0-17.5-6.43359375-17.5-19.2998046875v-30.2001953125h8.1005859375v30.099609375c0,4.3349609375,.8828125,7.53515625,2.6494140625,9.599609375,1.765625,2.068359375,4.5498046875,3.1015625,8.3505859375,3.1015625,4.1328125,0,7.5-1.3828125,10.099609375-4.150390625,2.599609375-2.765625,3.900390625-6.4501953125,3.900390625-11.05078125v-27.599609375h8.099609375v48.599609375h-7.900390625v-8.19921875c-1.5341796875,2.93359375-3.68359375,5.18359375-6.44921875,6.75-2.767578125,1.564453125-5.884765625,2.349609375-9.3505859375,2.349609375Z" style="fill: #fff;"/>
      <path d="M1021.537968421780533,706.564653564775654v-48.599609375h7.900390625v8.7001953125c2.599609375-5.8662109375,7.9326171875-9.1005859375,16-9.7001953125l2.900390625-.2998046875,.599609375,7-5.099609375,.6005859375c-4.6005859375,.3994140625-8.1005859375,1.849609375-10.5,4.349609375-2.400390625,2.5-3.6005859375,5.9169921875-3.6005859375,10.25v27.69921875h-8.2001953125Z" style="fill: #fff;"/>
      <path d="M1099.636601234280533,707.465044189775654c-4.8671875,0-9.0673828125-1.05078125-12.6005859375-3.150390625-3.5341796875-2.099609375-6.25-5.064453125-8.1494140625-8.8994140625-1.900390625-3.8330078125-2.8505859375-8.3154296875-2.8505859375-13.4501953125,0-7.732421875,2.1005859375-13.8154296875,6.30078125-18.25,4.19921875-4.4326171875,9.96484375-6.650390625,17.2998046875-6.650390625,3,0,5.9658203125,.53515625,8.8994140625,1.6005859375,2.93359375,1.0673828125,5.3662109375,2.5673828125,7.30078125,4.5l-2.80078125,5.8994140625c-1.93359375-1.865234375-4.0498046875-3.232421875-6.349609375-4.099609375-2.2998046875-.865234375-4.484375-1.2998046875-6.5498046875-1.2998046875-5.0673828125,0-8.9677734375,1.5849609375-11.7001953125,4.75-2.734375,3.1669921875-4.099609375,7.7177734375-4.099609375,13.6494140625,0,5.80078125,1.365234375,10.384765625,4.099609375,13.75,2.732421875,3.3671875,6.6328125,5.05078125,11.7001953125,5.05078125,2.0654296875,0,4.25-.43359375,6.5498046875-1.30078125,2.2998046875-.865234375,4.416015625-2.265625,6.349609375-4.19921875l2.80078125,5.900390625c-1.9345703125,1.93359375-4.384765625,3.44921875-7.3505859375,4.548828125-2.966796875,1.099609375-5.9169921875,1.650390625-8.849609375,1.650390625Z" style="fill: #fff;"/>
      <path d="M1142.536991859280533,707.465044189775654c-4.734375,0-8.833984375-1.033203125-12.2998046875-3.099609375-3.466796875-2.06640625-6.150390625-4.982421875-8.0498046875-8.75-1.900390625-3.765625-2.8505859375-8.2158203125-2.8505859375-13.349609375,0-5.1328125,.9501953125-9.583984375,2.8505859375-13.3505859375,1.8994140625-3.765625,4.5830078125-6.6826171875,8.0498046875-8.75,3.4658203125-2.0654296875,7.5654296875-3.1005859375,12.2998046875-3.1005859375,4.666015625,0,8.75,1.03515625,12.25,3.1005859375,3.5,2.0673828125,6.2001953125,4.984375,8.1005859375,8.75,1.8994140625,3.7666015625,2.849609375,8.2177734375,2.849609375,13.3505859375,0,5.1337890625-.9501953125,9.583984375-2.849609375,13.349609375-1.900390625,3.767578125-4.6005859375,6.68359375-8.1005859375,8.75s-7.583984375,3.099609375-12.25,3.099609375Zm0-6.5c4.533203125,0,8.166015625-1.615234375,10.900390625-4.849609375,2.732421875-3.232421875,4.099609375-7.849609375,4.099609375-13.849609375,0-6.06640625-1.3671875-10.701171875-4.099609375-13.900390625-2.734375-3.2001953125-6.3671875-4.80078125-10.900390625-4.80078125-4.599609375,0-8.25,1.6005859375-10.9501953125,4.80078125-2.69921875,3.19921875-4.0498046875,7.833984375-4.0498046875,13.900390625,0,6,1.3505859375,10.6171875,4.0498046875,13.849609375,2.7001953125,3.234375,6.3505859375,4.849609375,10.9501953125,4.849609375Z" style="fill: #fff;"/>
      <path d="M1176.136601234280533,706.564653564775654v-48.599609375h7.900390625v8.2001953125c1.4658203125-2.9326171875,3.5-5.1826171875,6.099609375-6.75,2.6005859375-1.5654296875,5.6328125-2.3505859375,9.1005859375-2.3505859375,7.599609375,0,12.46484375,3.30078125,14.599609375,9.900390625,1.4658203125-3.0654296875,3.6328125-5.482421875,6.5-7.25,2.865234375-1.765625,6.166015625-2.650390625,9.900390625-2.650390625,10.7998046875,0,16.19921875,6.400390625,16.19921875,19.201171875v30.298828125h-8.099609375v-29.8994140625c0-4.4658203125-.7841796875-7.75-2.349609375-9.8505859375-1.5673828125-2.099609375-4.150390625-3.1494140625-7.75-3.1494140625-3.9345703125,0-7.0673828125,1.3994140625-9.400390625,4.2001953125-2.333984375,2.7998046875-3.5,6.5341796875-3.5,11.19921875v27.5h-8.099609375v-29.8994140625c0-4.4658203125-.78515625-7.75-2.3505859375-9.8505859375-1.5673828125-2.099609375-4.1494140625-3.1494140625-7.75-3.1494140625-4,0-7.1494140625,1.3994140625-9.4501953125,4.2001953125-2.2998046875,2.7998046875-3.44921875,6.5341796875-3.44921875,11.19921875v27.5h-8.1005859375Z" style="fill: #fff;"/>
      <path d="M1262.135624671780533,706.564653564775654v-42.298828125h-9.6005859375v-6.30078125h9.6005859375v-1.69921875c0-6.466796875,1.615234375-11.3662109375,4.849609375-14.701171875,3.2333984375-3.33203125,8.2158203125-5.19921875,14.9501953125-5.599609375l3.900390625-.19921875,.69921875,6.19921875-4.599609375,.30078125c-4.134765625,.333984375-7.1171875,1.56640625-8.9501953125,3.69921875-1.833984375,2.134765625-2.75,5.234375-2.75,9.30078125v2.69921875h14v6.30078125h-14v42.298828125h-8.099609375Z" style="fill: #fff;"/>
      <path d="M1307.935429359280533,707.465044189775654c-5.734375,0-10.0341796875-1.515625-12.8994140625-4.55078125-2.8671875-3.03125-4.2998046875-7.4140625-4.2998046875-13.1484375v-25.5h-9.5v-6.30078125h9.5v-14.900390625h8.099609375v14.900390625h15.400390625v6.30078125h-15.400390625v24.69921875c0,3.80078125,.7998046875,6.6845703125,2.400390625,8.650390625,1.599609375,1.966796875,4.19921875,2.94921875,7.7998046875,2.94921875,1.0654296875,0,2.1328125-.1328125,3.2001953125-.400390625,1.0654296875-.265625,2.0322265625-.53125,2.8994140625-.798828125l1.400390625,6.19921875c-.8671875,.466796875-2.134765625,.900390625-3.7998046875,1.30078125-1.66796875,.400390625-3.267578125,.599609375-4.80078125,.599609375Z" style="fill: #fff;"/>
      <path d="M1341.135624671780533,707.465044189775654c-4.734375,0-8.833984375-1.033203125-12.2998046875-3.099609375-3.466796875-2.06640625-6.150390625-4.982421875-8.0498046875-8.75-1.900390625-3.765625-2.8505859375-8.2158203125-2.8505859375-13.349609375,0-5.1328125,.9501953125-9.583984375,2.8505859375-13.3505859375,1.8994140625-3.765625,4.5830078125-6.6826171875,8.0498046875-8.75,3.4658203125-2.0654296875,7.5654296875-3.1005859375,12.2998046875-3.1005859375,4.666015625,0,8.75,1.03515625,12.25,3.1005859375,3.5,2.0673828125,6.2001953125,4.984375,8.1005859375,8.75,1.8994140625,3.7666015625,2.849609375,8.2177734375,2.849609375,13.3505859375,0,5.1337890625-.9501953125,9.583984375-2.849609375,13.349609375-1.900390625,3.767578125-4.6005859375,6.68359375-8.1005859375,8.75s-7.583984375,3.099609375-12.25,3.099609375Zm0-6.5c4.533203125,0,8.166015625-1.615234375,10.900390625-4.849609375,2.732421875-3.232421875,4.099609375-7.849609375,4.099609375-13.849609375,0-6.06640625-1.3671875-10.701171875-4.099609375-13.900390625-2.734375-3.2001953125-6.3671875-4.80078125-10.900390625-4.80078125-4.599609375,0-8.25,1.6005859375-10.9501953125,4.80078125-2.69921875,3.19921875-4.0498046875,7.833984375-4.0498046875,13.900390625,0,6,1.3505859375,10.6171875,4.0498046875,13.849609375,2.7001953125,3.234375,6.3505859375,4.849609375,10.9501953125,4.849609375Z" style="fill: #fff;"/>
      <path d="M1374.535038734280533,706.564653564775654v-48.599609375h7.900390625v8.7001953125c2.599609375-5.8662109375,7.9326171875-9.1005859375,16-9.7001953125l2.900390625-.2998046875,.599609375,7-5.099609375,.6005859375c-4.6005859375,.3994140625-8.1005859375,1.849609375-10.5,4.349609375-2.400390625,2.5-3.6005859375,5.9169921875-3.6005859375,10.25v27.69921875h-8.2001953125Z" style="fill: #fff;"/>
      <path d="M1430.432499671780533,707.465044189775654c-5.734375,0-10.0341796875-1.515625-12.8994140625-4.55078125-2.8671875-3.03125-4.2998046875-7.4140625-4.2998046875-13.1484375v-25.5h-9.5v-6.30078125h9.5v-14.900390625h8.099609375v14.900390625h15.400390625v6.30078125h-15.400390625v24.69921875c0,3.80078125,.7998046875,6.6845703125,2.400390625,8.650390625,1.599609375,1.966796875,4.19921875,2.94921875,7.7998046875,2.94921875,1.0654296875,0,2.1328125-.1328125,3.2001953125-.400390625,1.0654296875-.265625,2.0322265625-.53125,2.8994140625-.798828125l1.400390625,6.19921875c-.8671875,.466796875-2.134765625,.900390625-3.7998046875,1.30078125-1.66796875,.400390625-3.267578125,.599609375-4.80078125,.599609375Z" style="fill: #fff;"/>
      <path d="M1459.232304359280533,707.465044189775654c-3.3349609375,0-6.3173828125-.650390625-8.9501953125-1.94921875-2.634765625-1.30078125-4.7177734375-3.083984375-6.25-5.3515625-1.5341796875-2.265625-2.2998046875-4.798828125-2.2998046875-7.599609375,0-3.5322265625,.9150390625-6.33203125,2.75-8.3994140625,1.83203125-2.0654296875,4.865234375-3.5498046875,9.099609375-4.4501953125,4.232421875-.900390625,10.015625-1.349609375,17.349609375-1.349609375h3.2001953125v-3.099609375c0-4.1328125-.849609375-7.1162109375-2.5498046875-8.951171875-1.7001953125-1.83203125-4.4169921875-2.75-8.150390625-2.75-2.93359375,0-5.7666015625,.41796875-8.5,1.25-2.734375,.8349609375-5.5341796875,2.185546875-8.3994140625,4.05078125l-2.7998046875-5.900390625c2.5322265625-1.7998046875,5.615234375-3.232421875,9.25-4.2998046875,3.6328125-1.0654296875,7.115234375-1.6005859375,10.44921875-1.6005859375,6.265625,0,10.916015625,1.53515625,13.9501953125,4.6005859375,3.033203125,3.0673828125,4.5498046875,7.8349609375,4.5498046875,14.2998046875v30.599609375h-7.599609375v-8.400390625c-1.267578125,2.8671875-3.216796875,5.134765625-5.849609375,6.80078125-2.634765625,1.666015625-5.7177734375,2.5-9.25,2.5Zm1.2998046875-6.099609375c4,0,7.265625-1.3828125,9.7998046875-4.150390625,2.533203125-2.765625,3.7998046875-6.283203125,3.7998046875-10.5498046875v-3h-3.099609375c-5.400390625,0-9.650390625,.25-12.75,.75-3.1005859375,.5-5.267578125,1.3671875-6.5,2.6005859375-1.234375,1.234375-1.8505859375,2.916015625-1.8505859375,5.048828125,0,2.734375,.9501953125,4.9677734375,2.8505859375,6.701171875,1.8994140625,1.734375,4.482421875,2.599609375,7.75,2.599609375Z" style="fill: #fff;"/>
      <path d="M1519.532109046780533,707.465044189775654c-3.8671875,0-7.25-.8671875-10.150390625-2.599609375-2.8994140625-1.732421875-5.083984375-4.099609375-6.5498046875-7.099609375v8.798828125h-7.900390625v-70.5h8.1005859375v30.30078125c1.3994140625-2.865234375,3.5654296875-5.1328125,6.5-6.80078125,2.9326171875-1.6650390625,6.265625-2.5,10-2.5,4.3330078125,0,8.115234375,1.017578125,11.349609375,3.05078125,3.2333984375,2.0341796875,5.7333984375,4.93359375,7.5,8.69921875,1.765625,3.767578125,2.650390625,8.25,2.650390625,13.451171875,0,5.1337890625-.884765625,9.583984375-2.650390625,13.349609375-1.7666015625,3.767578125-4.2666015625,6.68359375-7.5,8.75-3.234375,2.06640625-7.0166015625,3.099609375-11.349609375,3.099609375Zm-1.7001953125-6.5c4.533203125,0,8.166015625-1.615234375,10.900390625-4.849609375,2.732421875-3.232421875,4.099609375-7.849609375,4.099609375-13.849609375,0-6.06640625-1.3671875-10.701171875-4.099609375-13.900390625-2.734375-3.2001953125-6.3671875-4.80078125-10.900390625-4.80078125-4.5341796875,0-8.1669921875,1.6005859375-10.900390625,4.80078125-2.734375,3.19921875-4.099609375,7.833984375-4.099609375,13.900390625,0,6,1.365234375,10.6171875,4.099609375,13.849609375,2.7333984375,3.234375,6.3662109375,4.849609375,10.900390625,4.849609375Z" style="fill: #fff;"/>
      <path d="M1566.130741859280533,707.465044189775654c-4.9345703125,0-8.650390625-1.44921875-11.150390625-4.349609375s-3.75-7.115234375-3.75-12.650390625v-54.400390625h8.1005859375v53.80078125c0,7.134765625,2.8330078125,10.69921875,8.5,10.69921875,1.6650390625,0,3.1650390625-.19921875,4.5-.599609375l-.2001953125,6.80078125c-2.0673828125,.46484375-4.0673828125,.69921875-6,.69921875Z" style="fill: #fff;"/>
      <path d="M1600.230351234280533,707.465044189775654c-7.6669921875,0-13.734375-2.25-18.2001953125-6.75-4.466796875-4.5-6.7001953125-10.615234375-6.7001953125-18.349609375,0-5,1-9.416015625,3-13.25,2-3.8330078125,4.75-6.80078125,8.25-8.900390625s7.55078125-3.150390625,12.150390625-3.150390625c6.599609375,0,11.765625,2.1171875,15.5,6.3505859375,3.732421875,4.234375,5.599609375,10.0498046875,5.599609375,17.4501953125v3.099609375h-36.599609375c.265625,5.53515625,1.865234375,9.75,4.7998046875,12.650390625,2.9326171875,2.900390625,7,4.349609375,12.2001953125,4.349609375,2.9326171875,0,5.732421875-.44921875,8.400390625-1.349609375,2.6650390625-.900390625,5.19921875-2.3828125,7.599609375-4.4501953125l2.7998046875,5.7001953125c-2.2001953125,2.06640625-5,3.68359375-8.3994140625,4.849609375-3.400390625,1.166015625-6.8671875,1.75-10.400390625,1.75Zm-1.2998046875-44.400390625c-4.6005859375,0-8.234375,1.435546875-10.900390625,4.30078125-2.6669921875,2.8671875-4.234375,6.634765625-4.7001953125,11.2998046875h29.5c-.19921875-4.9326171875-1.484375-8.765625-3.849609375-11.5-2.3671875-2.7333984375-5.716796875-4.1005859375-10.0498046875-4.1005859375Z" style="fill: #fff;"/>
      <path d="M1674.729374671780533,725.465044189775654c-4.19921875,0-8.1494140625-.55078125-11.849609375-1.650390625s-6.984375-2.75-9.849609375-4.94921875l2.69921875-5.900390625c3,2.1328125,5.9833984375,3.666015625,8.9501953125,4.599609375,2.9658203125,.93359375,6.1826171875,1.400390625,9.650390625,1.400390625,9.599609375,0,14.3994140625-4.93359375,14.3994140625-14.80078125v-8.599609375c-1.3994140625,3.068359375-3.583984375,5.484375-6.5498046875,7.25-2.966796875,1.767578125-6.349609375,2.650390625-10.1494140625,2.650390625-4.4677734375,0-8.3349609375-1.033203125-11.6005859375-3.099609375-3.2666015625-2.06640625-5.7841796875-4.916015625-7.5498046875-8.55078125-1.767578125-3.6328125-2.650390625-7.849609375-2.650390625-12.6494140625s.8828125-9.015625,2.650390625-12.6494140625c1.765625-3.6328125,4.283203125-6.451171875,7.5498046875-8.451171875,3.265625-2,7.1328125-3,11.6005859375-3,3.7998046875,0,7.1826171875,.8671875,10.1494140625,2.6005859375,2.9658203125,1.734375,5.150390625,4.1005859375,6.5498046875,7.1005859375v-8.80078125h7.900390625v45.099609375c0,7.466796875-1.849609375,13.06640625-5.5498046875,16.80078125-3.7001953125,3.732421875-9.150390625,5.599609375-16.3505859375,5.599609375Zm-1.19921875-26.599609375c4.6650390625,0,8.365234375-1.599609375,11.099609375-4.80078125,2.732421875-3.19921875,4.099609375-7.5,4.099609375-12.8994140625s-1.3671875-9.6826171875-4.099609375-12.8505859375c-2.734375-3.1650390625-6.4345703125-4.75-11.099609375-4.75-4.6005859375,0-8.267578125,1.5849609375-11,4.75-2.734375,3.16796875-4.1005859375,7.451171875-4.1005859375,12.8505859375s1.3662109375,9.7001953125,4.1005859375,12.8994140625c2.732421875,3.201171875,6.3994140625,4.80078125,11,4.80078125Z" style="fill: #fff;"/>
      <path d="M1725.129765296780533,707.465044189775654c-3.3349609375,0-6.3173828125-.650390625-8.9501953125-1.94921875-2.634765625-1.30078125-4.7177734375-3.083984375-6.25-5.3515625-1.5341796875-2.265625-2.2998046875-4.798828125-2.2998046875-7.599609375,0-3.5322265625,.9150390625-6.33203125,2.75-8.3994140625,1.83203125-2.0654296875,4.865234375-3.5498046875,9.099609375-4.4501953125,4.232421875-.900390625,10.015625-1.349609375,17.349609375-1.349609375h3.2001953125v-3.099609375c0-4.1328125-.849609375-7.1162109375-2.5498046875-8.951171875-1.7001953125-1.83203125-4.4169921875-2.75-8.150390625-2.75-2.93359375,0-5.7666015625,.41796875-8.5,1.25-2.734375,.8349609375-5.5341796875,2.185546875-8.3994140625,4.05078125l-2.7998046875-5.900390625c2.5322265625-1.7998046875,5.615234375-3.232421875,9.25-4.2998046875,3.6328125-1.0654296875,7.115234375-1.6005859375,10.44921875-1.6005859375,6.265625,0,10.916015625,1.53515625,13.9501953125,4.6005859375,3.033203125,3.0673828125,4.5498046875,7.8349609375,4.5498046875,14.2998046875v30.599609375h-7.599609375v-8.400390625c-1.267578125,2.8671875-3.216796875,5.134765625-5.849609375,6.80078125-2.634765625,1.666015625-5.7177734375,2.5-9.25,2.5Zm1.2998046875-6.099609375c4,0,7.265625-1.3828125,9.7998046875-4.150390625,2.533203125-2.765625,3.7998046875-6.283203125,3.7998046875-10.5498046875v-3h-3.099609375c-5.400390625,0-9.650390625,.25-12.75,.75-3.1005859375,.5-5.267578125,1.3671875-6.5,2.6005859375-1.234375,1.234375-1.8505859375,2.916015625-1.8505859375,5.048828125,0,2.734375,.9501953125,4.9677734375,2.8505859375,6.701171875,1.8994140625,1.734375,4.482421875,2.599609375,7.75,2.599609375Z" style="fill: #fff;"/>
      <path d="M1780.328984046780533,707.465044189775654c-5.734375,0-10.0341796875-1.515625-12.8994140625-4.55078125-2.8671875-3.03125-4.2998046875-7.4140625-4.2998046875-13.1484375v-25.5h-9.5v-6.30078125h9.5v-14.900390625h8.099609375v14.900390625h15.400390625v6.30078125h-15.400390625v24.69921875c0,3.80078125,.7998046875,6.6845703125,2.400390625,8.650390625,1.599609375,1.966796875,4.19921875,2.94921875,7.7998046875,2.94921875,1.0654296875,0,2.1328125-.1328125,3.2001953125-.400390625,1.0654296875-.265625,2.0322265625-.53125,2.8994140625-.798828125l1.400390625,6.19921875c-.8671875,.466796875-2.134765625,.900390625-3.7998046875,1.30078125-1.66796875,.400390625-3.267578125,.599609375-4.80078125,.599609375Z" style="fill: #fff;"/>
      <path d="M1793.828007484280533,706.564653564775654v-70.5h8.1005859375v29.900390625c1.599609375-2.9326171875,3.849609375-5.150390625,6.75-6.650390625,2.8994140625-1.5,6.1494140625-2.25,9.75-2.25,11.5322265625,0,17.2998046875,6.400390625,17.2998046875,19.201171875v30.298828125h-8.099609375v-29.798828125c0-4.533203125-.884765625-7.8505859375-2.650390625-9.951171875-1.767578125-2.099609375-4.583984375-3.1494140625-8.4501953125-3.1494140625-4.466796875,0-8.0166015625,1.3837890625-10.6494140625,4.1494140625-2.634765625,2.767578125-3.9501953125,6.451171875-3.9501953125,11.05078125v27.69921875h-8.1005859375Z" style="fill: #fff;"/>
      <path d="M1870.527226234280533,707.465044189775654c-7.6669921875,0-13.734375-2.25-18.2001953125-6.75-4.466796875-4.5-6.7001953125-10.615234375-6.7001953125-18.349609375,0-5,1-9.416015625,3-13.25,2-3.8330078125,4.75-6.80078125,8.25-8.900390625s7.55078125-3.150390625,12.150390625-3.150390625c6.599609375,0,11.765625,2.1171875,15.5,6.3505859375,3.732421875,4.234375,5.599609375,10.0498046875,5.599609375,17.4501953125v3.099609375h-36.599609375c.265625,5.53515625,1.865234375,9.75,4.7998046875,12.650390625,2.9326171875,2.900390625,7,4.349609375,12.2001953125,4.349609375,2.9326171875,0,5.732421875-.44921875,8.400390625-1.349609375,2.6650390625-.900390625,5.19921875-2.3828125,7.599609375-4.4501953125l2.7998046875,5.7001953125c-2.2001953125,2.06640625-5,3.68359375-8.3994140625,4.849609375-3.400390625,1.166015625-6.8671875,1.75-10.400390625,1.75Zm-1.2998046875-44.400390625c-4.6005859375,0-8.234375,1.435546875-10.900390625,4.30078125-2.6669921875,2.8671875-4.234375,6.634765625-4.7001953125,11.2998046875h29.5c-.19921875-4.9326171875-1.484375-8.765625-3.849609375-11.5-2.3671875-2.7333984375-5.716796875-4.1005859375-10.0498046875-4.1005859375Z" style="fill: #fff;"/>
      <path d="M1899.827030921780533,706.564653564775654v-48.599609375h7.900390625v8.7001953125c2.599609375-5.8662109375,7.9326171875-9.1005859375,16-9.7001953125l2.900390625-.2998046875,.599609375,7-5.099609375,.6005859375c-4.6005859375,.3994140625-8.1005859375,1.849609375-10.5,4.349609375-2.400390625,2.5-3.6005859375,5.9169921875-3.6005859375,10.25v27.69921875h-8.2001953125Z" style="fill: #fff;"/>
      <path d="M1932.625859046780533,645.865434814775654v-9.099609375h10v9.099609375h-10Zm1,60.69921875v-48.599609375h8.1005859375v48.599609375h-8.1005859375Z" style="fill: #fff;"/>
      <path d="M1954.825077796780533,706.564653564775654v-48.599609375h7.900390625v8.30078125c1.599609375-3.06640625,3.865234375-5.3662109375,6.7998046875-6.900390625,2.9326171875-1.533203125,6.2333984375-2.30078125,9.900390625-2.30078125,11.5322265625,0,17.2998046875,6.400390625,17.2998046875,19.201171875v30.298828125h-8.099609375v-29.798828125c0-4.533203125-.884765625-7.8505859375-2.650390625-9.951171875-1.767578125-2.099609375-4.583984375-3.1494140625-8.4501953125-3.1494140625-4.466796875,0-8.0166015625,1.3837890625-10.6494140625,4.1494140625-2.634765625,2.767578125-3.9501953125,6.451171875-3.9501953125,11.05078125v27.69921875h-8.1005859375Z" style="fill: #fff;"/>
      <path d="M2031.124882484280533,725.465044189775654c-4.19921875,0-8.1494140625-.55078125-11.849609375-1.650390625s-6.984375-2.75-9.849609375-4.94921875l2.69921875-5.900390625c3,2.1328125,5.9833984375,3.666015625,8.9501953125,4.599609375,2.9658203125,.93359375,6.1826171875,1.400390625,9.650390625,1.400390625,9.599609375,0,14.3994140625-4.93359375,14.3994140625-14.80078125v-8.599609375c-1.3994140625,3.068359375-3.583984375,5.484375-6.5498046875,7.25-2.966796875,1.767578125-6.349609375,2.650390625-10.1494140625,2.650390625-4.4677734375,0-8.3349609375-1.033203125-11.6005859375-3.099609375-3.2666015625-2.06640625-5.7841796875-4.916015625-7.5498046875-8.55078125-1.767578125-3.6328125-2.650390625-7.849609375-2.650390625-12.6494140625s.8828125-9.015625,2.650390625-12.6494140625c1.765625-3.6328125,4.283203125-6.451171875,7.5498046875-8.451171875,3.265625-2,7.1328125-3,11.6005859375-3,3.7998046875,0,7.1826171875,.8671875,10.1494140625,2.6005859375,2.9658203125,1.734375,5.150390625,4.1005859375,6.5498046875,7.1005859375v-8.80078125h7.900390625v45.099609375c0,7.466796875-1.849609375,13.06640625-5.5498046875,16.80078125-3.7001953125,3.732421875-9.150390625,5.599609375-16.3505859375,5.599609375Zm-1.19921875-26.599609375c4.6650390625,0,8.365234375-1.599609375,11.099609375-4.80078125,2.732421875-3.19921875,4.099609375-7.5,4.099609375-12.8994140625s-1.3671875-9.6826171875-4.099609375-12.8505859375c-2.734375-3.1650390625-6.4345703125-4.75-11.099609375-4.75-4.6005859375,0-8.267578125,1.5849609375-11,4.75-2.734375,3.16796875-4.1005859375,7.451171875-4.1005859375,12.8505859375s1.3662109375,9.7001953125,4.1005859375,12.8994140625c2.732421875,3.201171875,6.3994140625,4.80078125,11,4.80078125Z" style="fill: #fff;"/>
      <path d="M2106.324101234280533,707.465044189775654c-3.7998046875,0-7.400390625-.53515625-10.7998046875-1.599609375-3.400390625-1.06640625-6.2001953125-2.56640625-8.400390625-4.5l2.6005859375-5.7001953125c2.3994140625,1.9345703125,5.0498046875,3.3505859375,7.94921875,4.2490234375,2.900390625,.900390625,5.8505859375,1.3515625,8.8505859375,1.3515625,3.7998046875,0,6.6650390625-.701171875,8.599609375-2.1015625,1.9326171875-1.3984375,2.900390625-3.298828125,2.900390625-5.69921875,0-1.865234375-.634765625-3.349609375-1.900390625-4.44921875-1.2666015625-1.1005859375-3.2666015625-1.951171875-6-2.55078125l-9.099609375-2c-8.267578125-1.7998046875-12.400390625-6.0654296875-12.400390625-12.7998046875,0-4.3994140625,1.75-7.9326171875,5.25-10.6005859375,3.5-2.6650390625,8.0830078125-4,13.75-4,3.3330078125,0,6.515625,.517578125,9.5498046875,1.55078125,3.033203125,1.0341796875,5.55078125,2.5498046875,7.55078125,4.5498046875l-2.7001953125,5.7001953125c-1.9345703125-1.80078125-4.1845703125-3.18359375-6.75-4.150390625-2.5673828125-.96484375-5.1171875-1.44921875-7.650390625-1.44921875-3.734375,0-6.5673828125,.734375-8.5,2.19921875-1.9345703125,1.466796875-2.8994140625,3.400390625-2.8994140625,5.80078125,0,3.734375,2.46484375,6.1337890625,7.3994140625,7.19921875l9.1005859375,1.900390625c4.265625,.93359375,7.5,2.4169921875,9.69921875,4.44921875,2.2001953125,2.03515625,3.30078125,4.78515625,3.30078125,8.25,0,4.46875-1.767578125,7.984375-5.30078125,10.55078125-3.5341796875,2.56640625-8.234375,3.849609375-14.099609375,3.849609375Z" style="fill: #fff;"/>
      <path d="M2136.022343421780533,724.564653564775654v-66.599609375h7.900390625v8.7001953125c1.4658203125-3,3.650390625-5.3505859375,6.5498046875-7.0498046875,2.900390625-1.7001953125,6.283203125-2.55078125,10.150390625-2.55078125,4.3330078125,0,8.115234375,1.017578125,11.349609375,3.05078125,3.2333984375,2.0341796875,5.7333984375,4.93359375,7.5,8.69921875,1.765625,3.767578125,2.650390625,8.25,2.650390625,13.451171875,0,5.1337890625-.884765625,9.583984375-2.650390625,13.349609375-1.7666015625,3.767578125-4.2666015625,6.68359375-7.5,8.75-3.234375,2.06640625-7.0166015625,3.099609375-11.349609375,3.099609375-3.734375,0-7.0673828125-.833984375-10-2.5-2.9345703125-1.666015625-5.1005859375-3.96484375-6.5-6.900390625v26.5h-8.1005859375Zm22.900390625-23.599609375c4.533203125,0,8.166015625-1.615234375,10.900390625-4.849609375,2.732421875-3.232421875,4.099609375-7.849609375,4.099609375-13.849609375,0-6.06640625-1.3671875-10.701171875-4.099609375-13.900390625-2.734375-3.2001953125-6.3671875-4.80078125-10.900390625-4.80078125-4.5341796875,0-8.1669921875,1.6005859375-10.900390625,4.80078125-2.734375,3.19921875-4.099609375,7.833984375-4.099609375,13.900390625,0,6,1.365234375,10.6171875,4.099609375,13.849609375,2.7333984375,3.234375,6.3662109375,4.849609375,10.900390625,4.849609375Z" style="fill: #fff;"/>
      <path d="M2207.621952796780533,707.465044189775654c-3.3349609375,0-6.3173828125-.650390625-8.9501953125-1.94921875-2.634765625-1.30078125-4.7177734375-3.083984375-6.25-5.3515625-1.5341796875-2.265625-2.2998046875-4.798828125-2.2998046875-7.599609375,0-3.5322265625,.9150390625-6.33203125,2.75-8.3994140625,1.83203125-2.0654296875,4.865234375-3.5498046875,9.099609375-4.4501953125,4.232421875-.900390625,10.015625-1.349609375,17.349609375-1.349609375h3.2001953125v-3.099609375c0-4.1328125-.849609375-7.1162109375-2.5498046875-8.951171875-1.7001953125-1.83203125-4.4169921875-2.75-8.150390625-2.75-2.93359375,0-5.7666015625,.41796875-8.5,1.25-2.734375,.8349609375-5.5341796875,2.185546875-8.3994140625,4.05078125l-2.7998046875-5.900390625c2.5322265625-1.7998046875,5.615234375-3.232421875,9.25-4.2998046875,3.6328125-1.0654296875,7.115234375-1.6005859375,10.44921875-1.6005859375,6.265625,0,10.916015625,1.53515625,13.9501953125,4.6005859375,3.033203125,3.0673828125,4.5498046875,7.8349609375,4.5498046875,14.2998046875v30.599609375h-7.599609375v-8.400390625c-1.267578125,2.8671875-3.216796875,5.134765625-5.849609375,6.80078125-2.634765625,1.666015625-5.7177734375,2.5-9.25,2.5Zm1.2998046875-6.099609375c4,0,7.265625-1.3828125,9.7998046875-4.150390625,2.533203125-2.765625,3.7998046875-6.283203125,3.7998046875-10.5498046875v-3h-3.099609375c-5.400390625,0-9.650390625,.25-12.75,.75-3.1005859375,.5-5.267578125,1.3671875-6.5,2.6005859375-1.234375,1.234375-1.8505859375,2.916015625-1.8505859375,5.048828125,0,2.734375,.9501953125,4.9677734375,2.8505859375,6.701171875,1.8994140625,1.734375,4.482421875,2.599609375,7.75,2.599609375Z" style="fill: #fff;"/>
      <path d="M2263.921757484280533,707.465044189775654c-4.8671875,0-9.0673828125-1.05078125-12.6005859375-3.150390625-3.5341796875-2.099609375-6.25-5.064453125-8.1494140625-8.8994140625-1.900390625-3.8330078125-2.8505859375-8.3154296875-2.8505859375-13.4501953125,0-7.732421875,2.1005859375-13.8154296875,6.30078125-18.25,4.19921875-4.4326171875,9.96484375-6.650390625,17.2998046875-6.650390625,3,0,5.9658203125,.53515625,8.8994140625,1.6005859375,2.93359375,1.0673828125,5.3662109375,2.5673828125,7.30078125,4.5l-2.80078125,5.8994140625c-1.93359375-1.865234375-4.0498046875-3.232421875-6.349609375-4.099609375-2.2998046875-.865234375-4.484375-1.2998046875-6.5498046875-1.2998046875-5.0673828125,0-8.9677734375,1.5849609375-11.7001953125,4.75-2.734375,3.1669921875-4.099609375,7.7177734375-4.099609375,13.6494140625,0,5.80078125,1.365234375,10.384765625,4.099609375,13.75,2.732421875,3.3671875,6.6328125,5.05078125,11.7001953125,5.05078125,2.0654296875,0,4.25-.43359375,6.5498046875-1.30078125,2.2998046875-.865234375,4.416015625-2.265625,6.349609375-4.19921875l2.80078125,5.900390625c-1.9345703125,1.93359375-4.384765625,3.44921875-7.3505859375,4.548828125-2.966796875,1.099609375-5.9169921875,1.650390625-8.849609375,1.650390625Z" style="fill: #fff;"/>
      <path d="M2308.521366859280533,707.465044189775654c-7.6669921875,0-13.734375-2.25-18.2001953125-6.75-4.466796875-4.5-6.7001953125-10.615234375-6.7001953125-18.349609375,0-5,1-9.416015625,3-13.25,2-3.8330078125,4.75-6.80078125,8.25-8.900390625s7.55078125-3.150390625,12.150390625-3.150390625c6.599609375,0,11.765625,2.1171875,15.5,6.3505859375,3.732421875,4.234375,5.599609375,10.0498046875,5.599609375,17.4501953125v3.099609375h-36.599609375c.265625,5.53515625,1.865234375,9.75,4.7998046875,12.650390625,2.9326171875,2.900390625,7,4.349609375,12.2001953125,4.349609375,2.9326171875,0,5.732421875-.44921875,8.400390625-1.349609375,2.6650390625-.900390625,5.19921875-2.3828125,7.599609375-4.4501953125l2.7998046875,5.7001953125c-2.2001953125,2.06640625-5,3.68359375-8.3994140625,4.849609375-3.400390625,1.166015625-6.8671875,1.75-10.400390625,1.75Zm-1.2998046875-44.400390625c-4.6005859375,0-8.234375,1.435546875-10.900390625,4.30078125-2.6669921875,2.8671875-4.234375,6.634765625-4.7001953125,11.2998046875h29.5c-.19921875-4.9326171875-1.484375-8.765625-3.849609375-11.5-2.3671875-2.7333984375-5.716796875-4.1005859375-10.0498046875-4.1005859375Z" style="fill: #fff;"/>
    </g>
  </g>
  <g>
    <g>
      <path d="M608.409978789009983,540.263991220335811c.09914799804028-.112508366559268,.16665301797002-.236267569780466,.264394661431652-.349479113630878,39.326596354378125-45.87388011099938,63.138288959889906-105.439325255269068,63.138288959889906-170.600655281408763,0-144.88124268538013-117.448890208441298-262.330132893819609-262.330132893821428-262.330132893819609S147.151693445401179,224.432614139916041,147.151693445401179,369.31385682529617c0,65.160626848848551,23.810989428218818,124.724665638539591,63.136179428020114,170.598545749529876,.098444820749137,.113914721148831,.166653017968201,.237673924359115,.266504193299625,.351588645509764l2.383067839240539,2.706529393099117c.959133824930177,1.084299382740937,1.892250090109883,2.190397261500038,2.86896334731864,3.258523566550139l67.63370138134087,76.817899979230788,92.709706756089872,105.299392974349757c17.683502514350039,20.084852963149388,48.981923737250327,20.084852963149388,66.664723074320136,0l92.710409933370101-105.299392974349757,67.625966431140114-76.809461851740707c.988667271160011-1.082189850869327,1.935143904858705-2.202351275449473,2.906231743749231-3.300714204009637l2.352831215719561-2.6727768831297Z" style="fill: #14a0db;"/>
      <g style="clip-path: url(#clippath);">
        <g>
          <path d="M684.846190175860102,547.288057805886638c0-52.89590322048025-43.907717831329137-95.777052716790422-98.069941099998687-95.777052716790422-54.162786672091897,0-98.069941100000506,42.881149496310172-98.069941100000506,95.777052716790422,0,1.97753007441861,.18197930091992,3.909390979089949,.303111033730602,5.857208581588566h-.303111033730602v103.356484206829919h196.139882199999192v-103.356484206829919h-.303111033739697c.121131732819777-1.947817602498617,.303111033739697-3.879678507169956,.303111033739697-5.857208581588566Z" style="fill: #acc9e7;"/>
          <path d="M643.374458278600287,413.800956081675395c0,31.258327808669492-25.33988139406938,56.598209202740691-56.598209202738872,56.5982092027607-31.258327808651302-.000000000020009-56.598209202740691-25.339881394091208-56.598209202740691-56.5982092027607,.000000000020009-31.258327808660397,25.339881394089389-56.598209202718863,56.598209202700673-56.598209202718863,31.258327808669492,0,56.598209202749786,25.339881394089389,56.598209202778889,56.598209202718863Z" style="fill: #acc9e7;"/>
          <path d="M330.258047879869991,547.288057805886638c0-52.89590322048025-43.907717831329137-95.777052716790422-98.069941099998687-95.777052716790422-54.162786672080983,0-98.06994110001142,42.881149496310172-98.06994110001142,95.777052716790422,0,1.97753007441861,.181979300921739,3.909390979089949,.303111033741516,5.857208581588566h-.303111033741516v103.356484206829919h196.139882200010106v-103.356484206829919h-.303111033739697c.121131732819777-1.947817602498617,.303111033739697-3.879678507169956,.303111033739697-5.857208581588566Z" style="fill: #acc9e7;"/>
          <path d="M288.786315982610176,413.800956081675395c0,31.258327808669492-25.339881394060285,56.598209202740691-56.598209202738872,56.5982092027607-31.258327808651302-.000000000020009-56.598209202729777-25.339881394091208-56.598209202729777-56.5982092027607,.00000000001819-31.258327808660397,25.339881394078475-56.598209202718863,56.598209202689759-56.598209202718863,31.258327808658578,0,56.598209202758881,25.339881394089389,56.598209202778889,56.598209202718863Z" style="fill: #acc9e7;"/>
          <circle cx="409.482177927858174" cy="368.087815771878013" r="83.42318931857514" style="fill: #f1f2f2;"/>
          <path d="M405.350667219590832,436.285980993325211c-80.992774911710512,2.327732278310577-151.990067766020729,70.02091326019945-172.614987699780613,165.437805554471197-.182364277989109,48.555390990179149-.365208461949805,97.110494392989494-.547572739938914,145.665885383168643h354.58814229599011v-145.665885383168643c-21.492589972151109-99.190901521871638-97.291822209330348-167.855840271071429-181.425581856270583-165.437805554471197Z" style="fill: #f1f2f2;"/>
        </g>
        <rect x="334.004817906341486" y="722.263810221586027" width="145.36780090855973" height="37.307868685149515" style="fill: #acc9e7;"/>
      </g>
    </g>
    <path d="M219.057327899639859,532.206145913965884l64.382912765000583,73.12551602413987,92.709706756078958,105.299392974349757c1.635590378900815,1.929870075180588,13.509442114911508,15.46075909746105,33.366114047130395,15.445289197059537,19.816590826640095-.015469900399694,31.658096407270932-13.509793703549803,33.29860902719156-15.445289197059537l92.710409933370101-105.299392974349757,64.38220958770944-73.12551602413987" style="fill: none; stroke: #acc9e7; stroke-miterlimit: 10; stroke-width: 24px;"/>
  </g>
  <g>
    <g>
      <path d="M608.409978789020897,540.263991277604873c.099147998020271-.112508366570182,.16665301797002-.236267569789561,.264394661420738-.349479113639973,39.326596354378125-45.873880110988466,63.138288959889906-105.439325255269068,63.138288959889906-170.600655281399668,0-144.88124268538013-117.448890208441298-262.330132893830523-262.330132893810514-262.330132893830523-144.88124268538013,0-262.330836071119847,117.448890208450393-262.330836071119847,262.330132893830523,0,65.16062684885037,23.810989428229732,124.72466563854141,63.136179428020114,170.598545749529876,.098444820749137,.113914721141555,.166653017979115,.237673924360934,.266504193299625,.351588645509764l2.383067839240539,2.706529393100936c.959133824930177,1.084299382739118,1.892250090109883,2.190397261500038,2.86896334731864,3.258523566539225l67.63370138134087,76.817899979239883,92.709706756089872,105.299392974351576c17.683502514350039,20.084852963149388,48.981923737259422,20.084852963149388,66.664723074320136,0l92.710409933370101-105.299392974351576,67.625966431140114-76.809461851738888c.988667271169106-1.082189850871146,1.935143904869619-2.202351275451292,2.906231743749231-3.300714204009637l2.352831215730475-2.672776883131519Z" style="fill: #fff;"/>
      <g style="clip-path: url(#clippath-1);">
        <g>
          <path d="M684.846190175860102,547.288057863144786c0-52.895903220469336-43.907717831329137-95.777052716779508-98.069941099998687-95.777052716779508-54.162786672080983,0-98.069941100000506,42.881149496310172-98.069941100000506,95.777052716779508,0,1.977530074431343,.18197930091992,3.909390979089949,.303111033748792,5.857208581590385h-.303111033748792v103.356484206829919h196.139882199999192v-103.356484206829919h-.303111033739697c.121131732819777-1.947817602500436,.303111033739697-3.879678507159042,.303111033739697-5.857208581590385Z" style="fill: #acc9e7;"/>
          <path d="M643.374458278591192,413.800956138946276c0,31.258327808669492-25.33988139405119,56.598209202729777-56.598209202729777,56.598209202749786-31.258327808660397-.000000000020009-56.598209202729777-25.339881394080294-56.598209202729777-56.598209202749786,.00000000001819-31.258327808660397,25.33988139406938-56.598209202720682,56.598209202689759-56.598209202720682,31.258327808678587,0,56.598209202758881,25.339881394089389,56.598209202769795,56.598209202720682Z" style="fill: #acc9e7;"/>
          <path d="M330.258047879880905,547.288057863144786c0-52.895903220469336-43.907717831340051-95.777052716779508-98.069941100009601-95.777052716779508-54.162786672080983,0-98.06994110001142,42.881149496310172-98.06994110001142,95.777052716779508,0,1.977530074431343,.181979300939929,3.909390979089949,.303111033759706,5.857208581590385h-.303111033759706v103.356484206829919h196.13988220002102v-103.356484206829919h-.303111033750611c.121131732819777-1.947817602500436,.303111033750611-3.879678507159042,.303111033750611-5.857208581590385Z" style="fill: #acc9e7;"/>
          <path d="M288.786315982601081,413.800956138946276c0,31.258327808669492-25.33988139405119,56.598209202729777-56.598209202729777,56.598209202749786-31.258327808651302-.000000000020009-56.598209202729777-25.339881394080294-56.598209202729777-56.598209202749786,.00000000001819-31.258327808660397,25.339881394078475-56.598209202720682,56.598209202689759-56.598209202720682,31.258327808678587,0,56.598209202758881,25.339881394089389,56.598209202769795,56.598209202720682Z" style="fill: #acc9e7;"/>
          <circle cx="409.482177927860903" cy="368.08781582914844" r="83.423189318575481" style="fill: #14a0db;"/>
          <path d="M405.350667219590832,436.285981050585178c-80.992774911719607,2.327732278319672-151.990067766009815,70.020913260210364-172.614987699780613,165.437805554480292-.182364277989109,48.555390990180967-.365208461949805,97.110494392989494-.547572739938914,145.665885383159548h354.58814229599011v-145.665885383159548c-21.492589972160204-99.190901521869819-97.291822209330348-167.855840271080524-181.425581856270583-165.437805554480292Z" style="fill: #14a0db;"/>
        </g>
        <rect x="334.004817906359676" y="722.26381027885509" width="145.36780090854154" height="37.307868685151334" style="fill: #acc9e7;"/>
      </g>
    </g>
    <path d="M219.057327899639859,532.206145971234946l64.382912765000583,73.125516024130775,92.709706756089872,105.299392974349757c1.635590378889901,1.929870075180588,13.509442114900594,15.460759097470145,33.366114047119481,15.445289197070451,19.816590826640095-.015469900399694,31.658096407270932-13.509793703560717,33.29860902719156-15.445289197070451l92.710409933388291-105.299392974349757,64.382209587700345-73.125516024130775" style="fill: none; stroke: #acc9e7; stroke-miterlimit: 10; stroke-width: 24px;"/>
  </g>
</svg>