<?xml version="1.0" standalone="no"?>
<!DOCTYPE svg PUBLIC "-//W3C//DTD SVG 20010904//EN"
 "http://www.w3.org/TR/2001/REC-SVG-20010904/DTD/svg10.dtd">
<svg version="1.0" xmlns="http://www.w3.org/2000/svg"
 width="700.000000pt" height="700.000000pt" viewBox="0 0 700.000000 700.000000"
 preserveAspectRatio="xMidYMid meet">
<metadata>
Created by potrace 1.14, written by Peter Selinger 2001-2017
</metadata>
<g transform="translate(0.000000,700.000000) scale(0.100000,-0.100000)"
fill="#000000" stroke="none">
<path d="M0 3500 l0 -3500 3500 0 3500 0 0 3500 0 3500 -3500 0 -3500 0 0
-3500z m3711 2610 c648 -66 1227 -414 1589 -958 511 -767 473 -1790 -95 -2517
-40 -51 -241 -283 -447 -516 -205 -233 -518 -588 -695 -789 -345 -391 -373
-418 -483 -441 -115 -24 -244 10 -328 89 -22 20 -288 318 -590 662 -302 344
-604 687 -671 763 -322 363 -467 610 -569 968 -59 207 -76 339 -76 589 0 248
16 378 74 585 217 771 856 1367 1640 1529 216 44 442 57 651 36z"/>
<path d="M3418 4649 c-154 -17 -280 -80 -399 -199 -69 -68 -94 -101 -127 -170
-57 -117 -73 -185 -73 -310 0 -125 16 -194 72 -309 46 -94 147 -208 231 -262
l51 -33 -69 -23 c-38 -13 -114 -45 -169 -72 -279 -137 -548 -407 -705 -708
l-42 -82 30 -38 c17 -21 271 -310 564 -643 342 -387 551 -616 581 -637 84 -56
190 -56 274 0 31 21 238 247 586 642 296 336 550 625 564 643 l26 33 -19 41
c-57 126 -184 310 -303 439 -131 143 -378 304 -573 374 l-90 32 50 32 c84 54
185 168 231 262 56 115 72 184 72 309 0 125 -16 193 -73 310 -58 120 -178 240
-298 298 -132 65 -255 87 -392 71z"/>
</g>
</svg>
