<?xml version="1.0" standalone="no"?>
<!DOCTYPE svg PUBLIC "-//W3C//DTD SVG 20010904//EN"
 "http://www.w3.org/TR/2001/REC-SVG-20010904/DTD/svg10.dtd">
<svg version="1.0" xmlns="http://www.w3.org/2000/svg"
 width="512.000000pt" height="512.000000pt" viewBox="0 0 512.000000 512.000000"
 preserveAspectRatio="xMidYMid meet">

<g transform="translate(0.000000,512.000000) scale(0.100000,-0.100000)"
fill="#000000" stroke="none">
<path d="M2165 4950 c-137 -14 -346 -58 -484 -102 -898 -287 -1532 -1044
-1662 -1988 -18 -123 -18 -477 0 -600 143 -1033 893 -1842 1903 -2050 745
-154 1515 57 2090 572 110 99 128 126 128 194 0 89 -66 156 -154 156 -57 0
-79 -13 -173 -98 -229 -208 -474 -351 -765 -448 -730 -243 -1533 -58 -2091
483 -829 802 -850 2107 -48 2934 526 543 1283 756 2015 567 352 -90 653 -261
925 -525 267 -259 457 -580 556 -940 14 -49 25 -94 25 -100 0 -5 -80 70 -177
167 -191 190 -206 199 -290 183 -49 -9 -109 -69 -118 -118 -17 -90 -23 -83
363 -469 385 -385 379 -380 468 -364 76 15 93 44 275 501 93 233 168 435 169
453 1 102 -92 177 -196 158 -60 -12 -103 -67 -153 -197 -24 -63 -47 -117 -50
-122 -4 -4 -17 26 -30 65 -36 113 -105 286 -149 374 -166 331 -449 659 -757
880 -301 216 -690 370 -1054 419 -142 19 -444 27 -566 15z"/>
<path d="M2261 3985 c-178 -39 -348 -172 -429 -336 -60 -121 -72 -188 -72
-416 l0 -193 -95 0 c-113 0 -151 -13 -191 -66 l-29 -37 0 -697 0 -697 29 -37
c53 -70 5 -67 940 -64 835 3 845 3 872 24 15 11 37 33 48 48 21 27 21 36 21
726 0 690 0 699 -21 726 -44 60 -67 69 -185 72 l-109 4 0 191 c0 228 -12 295
-72 416 -126 256 -423 397 -707 336z m271 -337 c70 -32 124 -86 157 -157 25
-54 26 -65 29 -253 l4 -198 -321 0 -321 0 0 178 c0 128 4 192 15 228 56 189
259 283 437 202z"/>
</g>
</svg>
